<svg width="261" height="261" viewBox="0 0 261 261" fill="none" xmlns="http://www.w3.org/2000/svg">
<g clip-path="url(#clip0_0_55)">
<rect width="261" height="261" fill="#FF872C"/>
<g clip-path="url(#clip1_0_55)">
<path fill-rule="evenodd" clip-rule="evenodd" d="M86.2589 85.3004V176.568H171.614V95.5309C171.614 92.9627 173.687 90.8807 176.243 90.8807C178.8 90.8807 180.873 92.9627 180.873 95.5309V181.218C180.873 183.787 178.8 185.868 176.243 185.868H81.6295C79.0727 185.868 77 183.787 77 181.218V80.6502C77 78.082 79.0727 76 81.6295 76H176.243C178.8 76 180.873 78.082 180.873 80.6502C180.873 83.2185 178.8 85.3004 176.243 85.3004H86.2589ZM160.442 160.634H97.3696C94.8129 160.634 92.7402 158.552 92.7402 155.984C92.7402 153.416 94.8129 151.334 97.3696 151.334H160.442C162.999 151.334 165.072 153.416 165.072 155.984C165.072 158.552 162.999 160.634 160.442 160.634Z" fill="white"/>
<path fill-rule="evenodd" clip-rule="evenodd" d="M188.557 83.5151C188.557 87.1257 191.485 90.0664 195.079 90.0664C198.674 90.0664 201.601 87.1257 201.601 83.5151C201.601 79.9046 198.674 76.9639 195.079 76.9639C191.485 76.9639 188.557 79.9046 188.557 83.5151ZM189.257 83.5151C189.257 80.2803 191.859 77.6664 195.079 77.6664C198.3 77.6664 200.902 80.2803 200.902 83.5151C200.902 86.7499 198.3 89.3639 195.079 89.3639C191.859 89.3639 189.257 86.7499 189.257 83.5151ZM195.096 86.5212C193.42 86.5212 192.802 85.0999 192.802 83.7112V83.3191C192.802 81.9304 193.42 80.5091 195.096 80.5091C196.641 80.5091 197.129 81.4566 197.129 82.3879H198.186V82.1101C198.186 81.0809 197.405 79.4962 195.079 79.4962C192.623 79.4962 191.696 81.522 191.696 83.3191V83.7112C191.696 85.5083 192.623 87.5341 195.079 87.5341C197.405 87.5341 198.186 86.0147 198.186 85.0182V84.8058H197.129C197.129 85.541 196.69 86.5212 195.096 86.5212Z" fill="white"/>
</g>
</g>
<defs>
<clipPath id="clip0_0_55">
<rect width="261" height="261" fill="white"/>
</clipPath>
<clipPath id="clip1_0_55">
<rect width="125" height="110" fill="white" transform="translate(77 76)"/>
</clipPath>
</defs>
</svg>
