<svg width="239" height="60" viewBox="0 0 239 60" fill="none" xmlns="http://www.w3.org/2000/svg">
<path d="M54.2861 0C55.6845 0 56.8181 1.13673 56.8184 2.53906C56.8184 3.9416 55.6847 5.0791 54.2861 5.0791H5.06445V54.9209H51.7539V10.666C51.7539 9.26349 52.8876 8.12698 54.2861 8.12695C55.6847 8.12695 56.8184 9.26348 56.8184 10.666V57.4609C56.8181 58.8633 55.6845 60 54.2861 60H2.53223C1.13386 60 0.000246655 58.8632 0 57.4609V2.53906C0.000247425 1.13676 1.13386 4.92255e-05 2.53223 0H54.2861ZM157.475 32.3418C158.01 31.9907 158.627 31.8742 159.327 31.9912C159.945 32.1083 160.439 32.4205 160.81 32.9277C161.18 33.4349 161.303 34.0204 161.18 34.6836C160.686 37.1805 159.801 39.4821 158.524 41.5889C157.248 43.6958 155.684 45.5203 153.831 47.0615C151.978 48.6026 149.899 49.8028 147.594 50.6611C145.288 51.5194 142.879 51.9482 140.368 51.9482C137.898 51.9482 135.52 51.5195 133.235 50.6611C130.951 49.8028 128.882 48.6124 127.029 47.0908C125.177 45.5691 123.602 43.7544 122.305 41.6475C121.008 39.5406 120.113 37.2382 119.619 34.7412C119.496 34.1172 119.619 33.5422 119.989 33.0156C120.36 32.4889 120.854 32.1669 121.472 32.0498C122.171 31.9718 122.789 32.0981 123.324 32.4297C123.859 32.7613 124.189 33.24 124.312 33.8643C124.724 35.8149 125.424 37.6192 126.412 39.2773C127.4 40.9355 128.604 42.3696 130.024 43.5791C131.445 44.7886 133.04 45.7352 134.811 46.418C136.581 47.1007 138.433 47.4414 140.368 47.4414C142.303 47.4414 144.166 47.1007 145.957 46.418C147.748 45.7352 149.354 44.7886 150.774 43.5791C152.195 42.3696 153.409 40.9356 154.418 39.2773C155.427 37.6193 156.116 35.7953 156.486 33.8057C156.61 33.1814 156.939 32.693 157.475 32.3418ZM98.4062 8.55176C99.1678 8.57129 100.073 8.65842 101.123 8.81445C102.173 8.97052 103.316 9.21425 104.551 9.5459C105.786 9.87755 106.949 10.3758 108.04 11.0391C109.131 11.7023 110.108 12.5414 110.973 13.5557C111.837 14.5701 112.455 15.8378 112.825 17.3594C112.949 17.9446 112.846 18.481 112.517 18.9688C112.187 19.4564 111.714 19.7785 111.097 19.9346C110.479 20.0516 109.902 19.9537 109.367 19.6416C108.832 19.3295 108.502 18.8811 108.379 18.2959C108.132 17.3595 107.7 16.5696 107.082 15.9258C106.464 15.282 105.734 14.7554 104.89 14.3457C104.046 13.9361 103.181 13.6238 102.296 13.4092C101.411 13.1946 100.588 13.038 99.8262 12.9404C99.0647 12.8429 98.4267 12.7949 97.9121 12.7949H97.1396L97.0781 12.7363H92.4463V48.7881C92.4462 49.4123 92.2301 49.9292 91.7979 50.3389C91.3657 50.7484 90.841 50.953 90.2236 50.9531C89.6061 50.9531 89.0807 50.7485 88.6484 50.3389C88.2162 49.9292 88 49.4123 88 48.7881V10.7461C88 10.1608 88.2268 9.64401 88.6797 9.19531C89.1325 8.74667 89.6676 8.52246 90.2852 8.52246H97.0166C97.1816 8.52247 97.6451 8.53226 98.4062 8.55176ZM189.464 46.6807C190.081 46.6807 190.607 46.8862 191.039 47.2959C191.471 47.7055 191.688 48.203 191.688 48.7881C191.687 49.4122 191.471 49.9292 191.039 50.3389C190.607 50.7486 190.081 50.9531 189.464 50.9531H171.246C170.587 50.9531 170.042 50.7485 169.609 50.3389C169.177 49.9293 168.961 49.4122 168.961 48.7881C168.961 48.203 169.177 47.7055 169.609 47.2959C170.042 46.8863 170.587 46.6807 171.246 46.6807H189.464ZM213.456 14.8428C214.012 14.6087 214.578 14.5891 215.154 14.7842C215.731 14.9793 216.143 15.3502 216.39 15.8965C216.637 16.4427 216.637 16.989 216.39 17.5352L210.646 31.7568L220.403 31.8154C221.062 31.8154 221.608 32.0201 222.04 32.4297C222.472 32.8393 222.688 33.3368 222.688 33.9219C222.688 34.5462 222.462 35.0639 222.009 35.4736C221.556 35.8831 221.021 36.0879 220.403 36.0879L209.35 36.0293H208.917L203.421 49.6074C203.256 50.0366 202.989 50.3685 202.618 50.6025C202.248 50.8366 201.836 50.9531 201.383 50.9531C201.177 50.9531 200.909 50.914 200.58 50.8359C200.004 50.6018 199.592 50.2122 199.345 49.666C199.098 49.1199 199.077 48.5735 199.283 48.0273L212.252 16.0137C212.499 15.4674 212.9 15.0769 213.456 14.8428ZM217.625 8.22949C218.201 7.95651 218.788 7.92705 219.385 8.1416C219.982 8.35621 220.403 8.737 220.65 9.2832L238.807 47.9102C239.054 48.4564 239.064 49.0026 238.838 49.5488C238.612 50.0949 238.21 50.5042 237.634 50.7773C237.304 50.8944 236.995 50.9531 236.707 50.9531C236.254 50.9531 235.842 50.8464 235.472 50.6318C235.101 50.4173 234.813 50.0951 234.607 49.666L216.513 11.0977C216.266 10.5516 216.246 9.99529 216.451 9.42969C216.657 8.86393 217.049 8.4636 217.625 8.22949ZM45.6426 41.1406C47.0411 41.1406 48.1757 42.2772 48.1758 43.6797C48.1758 45.0822 47.0411 46.2197 45.6426 46.2197H11.1426C9.74402 46.2197 8.61035 45.0822 8.61035 43.6797C8.6104 42.2772 9.74405 41.1406 11.1426 41.1406H45.6426ZM171.246 8.28809C171.864 8.28809 172.389 8.49266 172.821 8.90234C173.253 9.31196 173.47 9.82901 173.47 10.4531V42.6426C173.47 43.2277 173.253 43.7349 172.821 44.1641C172.389 44.5933 171.864 44.8086 171.246 44.8086C170.587 44.8086 170.042 44.5932 169.609 44.1641C169.177 43.7349 168.961 43.2277 168.961 42.6426V10.4531C168.961 9.82904 169.177 9.31194 169.609 8.90234C170.042 8.4927 170.587 8.28812 171.246 8.28809ZM109.553 22.1875C110.088 21.856 110.643 21.7688 111.22 21.9248C111.837 22.0419 112.321 22.3443 112.671 22.832C113.021 23.3197 113.134 23.8562 113.011 24.4414C112.558 26.3141 111.827 27.8452 110.818 29.0352C109.81 30.2252 108.647 31.1717 107.329 31.874C106.012 32.5762 104.632 33.0638 103.191 33.3369C101.751 33.61 100.413 33.7471 99.1777 33.7471C98.272 33.7471 97.4481 33.6883 96.707 33.5713C96.0898 33.4932 95.596 33.2101 95.2256 32.7227C94.8551 32.235 94.7107 31.6985 94.793 31.1133C94.8753 30.528 95.1738 30.0592 95.6885 29.708C96.203 29.3569 96.7693 29.2208 97.3867 29.2988C97.4279 29.2988 97.7061 29.3184 98.2207 29.3574C98.7353 29.3964 99.3635 29.4062 100.104 29.3867C100.845 29.3672 101.648 29.2595 102.513 29.0645C103.377 28.8694 104.211 28.5669 105.014 28.1572C105.816 27.7475 106.537 27.1719 107.175 26.4307C107.813 25.6894 108.276 24.7338 108.564 23.5635C108.688 22.9782 109.018 22.5191 109.553 22.1875ZM140.431 8.05371C143.148 8.05375 145.711 8.5412 148.119 9.5166C150.528 10.492 152.668 11.8389 154.541 13.5557C156.414 15.2723 157.958 17.3007 159.173 19.6416C160.387 21.9826 161.16 24.5189 161.489 27.25C161.572 27.9132 161.396 28.4791 160.964 28.9473C160.532 29.4154 160.007 29.6885 159.39 29.7666H159.143C158.525 29.7666 157.989 29.5718 157.536 29.1816C157.083 28.7916 156.816 28.3234 156.733 27.7773C156.486 25.6314 155.889 23.6219 154.942 21.749C153.996 19.8764 152.802 18.2669 151.361 16.9209C149.92 15.5748 148.263 14.5108 146.39 13.7305C144.517 12.9502 142.53 12.5606 140.431 12.5605C138.331 12.5605 136.344 12.9501 134.471 13.7305C132.597 14.5108 130.93 15.5748 129.469 16.9209C128.007 18.267 126.803 19.8763 125.856 21.749C124.91 23.6219 124.312 25.6314 124.065 27.7773C123.983 28.3625 123.694 28.8599 123.2 29.2695C122.706 29.679 122.11 29.8445 121.41 29.7666C120.793 29.6886 120.267 29.4155 119.835 28.9473C119.403 28.4791 119.227 27.9132 119.31 27.25C119.598 24.5189 120.36 21.9826 121.595 19.6416C122.83 17.3006 124.385 15.2724 126.258 13.5557C128.131 11.8389 130.282 10.492 132.711 9.5166C135.14 8.54121 137.713 8.05371 140.431 8.05371Z" fill="#FF872C"/>
</svg>
